<svg xmlns="http://www.w3.org/2000/svg" viewBox="0 0 512 512" width="512" height="512">
  <defs>
    <linearGradient id="bg" x1="0%" y1="0%" x2="100%" y2="100%">
      <stop offset="0%" style="stop-color:#1e3a8a"/>
      <stop offset="100%" style="stop-color:#059669"/>
    </linearGradient>
  </defs>
  
  <!-- Background -->
  <rect width="512" height="512" fill="url(#bg)" rx="80"/>
  
  <!-- Wheat/Grain Icon -->
  <g transform="translate(256,256)" fill="white">
    <!-- Wheat stem -->
    <rect x="-4" y="50" width="8" height="100" fill="#10b981" rx="4"/>
    
    <!-- Wheat grains -->
    <g stroke="white" stroke-width="2" fill="white">
      <!-- Left side grains -->
      <ellipse cx="-20" cy="-80" rx="8" ry="12" transform="rotate(-20)"/>
      <ellipse cx="-25" cy="-60" rx="8" ry="12" transform="rotate(-25)"/>
      <ellipse cx="-28" cy="-40" rx="8" ry="12" transform="rotate(-30)"/>
      <ellipse cx="-30" cy="-20" rx="8" ry="12" transform="rotate(-35)"/>
      <ellipse cx="-28" cy="0" rx="8" ry="12" transform="rotate(-30)"/>
      <ellipse cx="-25" cy="20" rx="8" ry="12" transform="rotate(-25)"/>
      <ellipse cx="-20" cy="40" rx="8" ry="12" transform="rotate(-20)"/>
      
      <!-- Right side grains -->
      <ellipse cx="20" cy="-80" rx="8" ry="12" transform="rotate(20)"/>
      <ellipse cx="25" cy="-60" rx="8" ry="12" transform="rotate(25)"/>
      <ellipse cx="28" cy="-40" rx="8" ry="12" transform="rotate(30)"/>
      <ellipse cx="30" cy="-20" rx="8" ry="12" transform="rotate(35)"/>
      <ellipse cx="28" cy="0" rx="8" ry="12" transform="rotate(30)"/>
      <ellipse cx="25" cy="20" rx="8" ry="12" transform="rotate(25)"/>
      <ellipse cx="20" cy="40" rx="8" ry="12" transform="rotate(20)"/>
    </g>
    
    <!-- AI Brain/Circuit overlay -->
    <g opacity="0.7" transform="translate(80,80)" fill="#fbbf24">
      <circle cx="0" cy="0" r="30" fill="none" stroke="#fbbf24" stroke-width="3"/>
      <circle cx="0" cy="0" r="4" fill="#fbbf24"/>
      <circle cx="-15" cy="-15" r="3" fill="#fbbf24"/>
      <circle cx="15" cy="-15" r="3" fill="#fbbf24"/>
      <circle cx="-15" cy="15" r="3" fill="#fbbf24"/>
      <circle cx="15" cy="15" r="3" fill="#fbbf24"/>
      
      <!-- Connection lines -->
      <line x1="0" y1="0" x2="-15" y2="-15" stroke="#fbbf24" stroke-width="2"/>
      <line x1="0" y1="0" x2="15" y2="-15" stroke="#fbbf24" stroke-width="2"/>
      <line x1="0" y1="0" x2="-15" y2="15" stroke="#fbbf24" stroke-width="2"/>
      <line x1="0" y1="0" x2="15" y2="15" stroke="#fbbf24" stroke-width="2"/>
    </g>
  </g>
  
  <!-- App name at bottom -->
  <text x="256" y="450" text-anchor="middle" fill="white" font-family="system-ui, sans-serif" font-size="36" font-weight="bold">AgriNexus</text>
  <text x="256" y="480" text-anchor="middle" fill="rgba(255,255,255,0.8)" font-family="system-ui, sans-serif" font-size="20">AI</text>
</svg>